/* XPM */
static char *f258479b3a7a45b0af8874ab3afcdbc82L4TyIw84sO96WhJ[] = {
/* columns rows colors chars-per-pixel */
"32 32 65 1 ",
"  c #010100",
". c #010101",
"X c #101010",
"o c #111010",
"O c #111110",
"+ c #101011",
"@ c #111111",
"# c #202020",
"$ c #212120",
"% c #202021",
"& c #202121",
"* c gray19",
"= c #313030",
"- c #303130",
"; c #313130",
": c #313031",
"> c #303131",
", c #404000",
"< c #404100",
"1 c #404001",
"2 c #606000",
"3 c #616100",
"4 c #606001",
"5 c #616101",
"6 c gray25",
"7 c #414040",
"8 c #404140",
"9 c #414140",
"0 c #414141",
"q c #505050",
"w c #515050",
"e c #505150",
"r c #515150",
"t c #505051",
"y c #515151",
"u c #606060",
"i c #616060",
"p c #616160",
"a c #606061",
"s c #616061",
"d c gray44",
"f c #707170",
"g c #808000",
"h c #818100",
"j c #808101",
"k c #A0A000",
"l c #A0A100",
"z c #A1A100",
"x c #A1A001",
"c c #A1A101",
"v c #C0C000",
"b c #C1C001",
"n c #C0C101",
"m c #C1C101",
"M c #E0E000",
"N c #E1E100",
"B c #E0E001",
"V c #FFFE00",
"C c #FEFE01",
"Z c #808080",
"A c #818080",
"S c #808081",
"D c #FFFF80",
"F c #FFFF81",
"G c #FEFFFF",
/* pixels */
"XX%XXX%X+&&XXX#o%%XX%X$XXXX$X$#X",
"XfZZfXsssZdsZd#a  dSZss%fAfpffAp",
"%s66;%r7-q%>-7% GV ->6>Xq>7r00*;",
"Xf>>;Xp;*7;6q-X VM *6q>Xq6r7;@*7",
"XA>7@@s0>q     VMzV     X&XX$@@&",
"XA%r>@y;6 MVGGVVNmMGGGVM Xqqsysy",
"$p>90&@@X MMVMVvVvvGMMVv Xq;6;0q",
"od>>%&>@qq MVvVvGVvVvMvG6Xs66q0>",
"oSq6>66%s6>. xVGVNvMv  G>&sq66q>",
"oa>6>6:Xy>>y>  VMNN VGGGGGV>q>>%",
"Xd*#6;$@i7>9>% GMVvX>66G6Xq%9:>9",
"#X##@%&@q7r>6> GMGx >%>V>%q6$>$>",
"Xasqaqq%a#00>$.CvGv %@XVX$XX@%@@",
"Xd6q-->Xa>:t0;.CvGM ysyyqrpsyysy",
"XA7-*tXXiq=7;$.NvVM :y$>>%7q>9>>",
"#d*6*t>%w77 ..NNvMMv...96>777y69",
"oS667*6XV6 FFVFFFvvvNNN ;&;;9;0r",
"#f6q*%-oG VFVVVVMMMMNmmm 0;9;%;;",
"oa76-*VGGGVVVMMMMMvvmmxvm O&XX$X",
"of**77>>GMMMMMMvvvxxzzxkz rprsqq",
"oa77*--6VMMvGvvvGVvvxVvx5 7>;%07",
"+S7q*#8q VvGvVvGvvVkGvVkG ;66;0r",
"od7=*6>6 xGxvvGvxxxGvxkGv -q*6q>",
"oSq7t7; jVvVxGvVxxGvVvVvV< 8-*6$",
"Xd--76 kxjvxVvxxGGvxxVvc5<< 66>6",
"%a*%%  kxxxjj5jjjjjjjhhh5<<  >6>",
"X#oX kBVVGGGGGGVVVVVVMMMMMvx< 6>",
"Xat kkVVGGGGVVVVVMMMMMMMvvv5<< %",
"+d- kxBvvvvkkxxxxxkjhh335555<< X",
"&Zq BVVGGGGGGVVVMMBBNNNNMMMvvx q",
"%d8 VVGGGVVBBBMMBBBBNmmmmmxvb4 6",
"+Z- Bvvxkkkkxxjjjj253333335544 >"
};
