/* XPM */
static char *aca66ca848e14732de659908a5bf4231cfZkblS6r2Rd8GiP[] = {
/* columns rows colors chars-per-pixel */
"32 32 11 1 ",
"  c None",
". c black",
"X c #404000",
"o c #606000",
"O c #808000",
"+ c #A0A000",
"@ c #C0C000",
"# c #E0E000",
"$ c yellow",
"% c #FFFF80",
"& c white",
/* pixels */
"               ..               ",
"              .&$.              ",
"              .$#.              ",
"         .....$#@$.....         ",
"        .#$&&$$#@#&&&$#.        ",
"        .##$#$@$@@&##$@.        ",
"         .#$@$@&$@$@#@&         ",
"          ..@#&$#@#@..&         ",
"            ..$###.$&&&&&$      ",
"             .&#$@.   &         ",
"             .&#&@.   $         ",
"             .$@&@.   $         ",
"             .$@&#.             ",
"             .#@$#.             ",
"          ...##@##@...          ",
"       $ .%%$%%%@@@###.         ",
"       &.$%$$$$#####@@@.        ",
"     $&&&$$$#####@@@@@@@.       ",
"       &######@@@+++++++.       ",
"       $##@&@@@&$@@+$@+O.       ",
"       .$@&@$@&@@$+&@$+&.       ",
"       .+&+@@&@+++&@++&@.       ",
"      .O$@$+&@$++&@$@$@$X.      ",
"     .++O@+$@++&&@++$@+oXX.     ",
"    ..++++OOOOOOOOOOOOOoXX..    ",
"   .+#$$&&&&&&$$$$$$#####@+X.   ",
"  .++$$&&&&$$$$$#######@@@oXX.  ",
"  .++#@@@@++++++++OOOooooooXX.  ",
"  .#$$&&&&&&$$$###########@@+.  ",
"  .$$&&&$$##########@@@@@@@@o.  ",
"  .#@@+++++++OOOOoooooooooooo.  ",
"  ............................  "
};
