/* XPM */
static char *_a2ca21b33494c8c872fd29375d00dbehjpGCz1KRCagcXH2[] = {
/* columns rows colors chars-per-pixel */
"32 32 31 1 ",
"  c #6D6D6D",
". c gray43",
"X c #727272",
"o c #747474",
"O c #797979",
"+ c gray49",
"@ c #808080",
"# c gray53",
"$ c gray54",
"% c #8D8D8D",
"& c #939393",
"* c #979797",
"= c #9A9A9A",
"- c #9D9D9D",
"; c #A2A2A2",
": c #A5A5A5",
"> c gray66",
", c gray68",
"< c gray70",
"1 c #B6B6B6",
"2 c #BBBBBB",
"3 c #BCBCBC",
"4 c #C1C1C1",
"5 c #C6C6C6",
"6 c #C8C8C8",
"7 c gray81",
"8 c gray82",
"9 c #D8D8D8",
"0 c #E2E2E2",
"q c #E6E6E6",
"w c #E7E7E7",
/* pixels */
"XXoOO+oXX..XX+OXoo@%&$++OO@@+oo-",
"o;:>:;-==-;,<>;-;:<32<,:<3<,----",
"o:>>77777700000088wwq788qqwq+--:",
"O,$;-777700000088www777wqqwX=-:4",
"@,8o-77700000088qqq877wwqq8%-w=5",
"#,7787700000077wqq777qwww88wqq-4",
"@>777700000077qqw777qwww88wwqq$,",
"+:77700000077qqq887qqqw88wwwq9+:",
"+;7700000077qww788wwww88wwww99o;",
"o-700000077qqq887wwww88wwww999X=",
"X=00000088qqq788qqww88wwww9999.=",
"X-0000077wwq777wqqw88wwww99999.*",
"X-000087qqq877wwww88wwww999999.*",
"X-00078wqq777qwww88wwww9999999.*",
".=0077qww777qwww88wwww99999994.;",
".=087qqw887qqqw88wwwq999999943X:",
"X=88qqq788wwww88wwww9999999344o;",
"X-7wwq777wwww88wwww9999999444wo=",
"X;qqw887qqww88wwww9999999434ww.=",
"O-qq788wqqw88wwww9999999444wwq.=",
"O=q887qqww88wwww9999999444wqww.=",
"X=788wqqw88wwww9999999343wwqww.=",
".=77wwww88wwww9999999344wwqqq9.*",
".=7qwww88wwww9999999444wwwqq99X=",
"X;wwww88wwww9999999344wwwww999o-",
"O,www88wwww9999999443wwwww9999o;",
"+<ww88wwqw9999999444wwwww99999o-",
"$<wo-wwwq9999999444wwwww999+O9X=",
"#>$--qww9999999434wwwww9999o-$.*",
"o-==qqw9999999434wwwwq999999+===",
"X==-*$=%@+oO@$%$@XX.XO$;$+XX.*==",
"$=-,4q5<;;:<494>;===;233:===-=**"
};
