/* XPM */
static char *f4e8dd2ba9524724ff76f1b32dc9152egUQVPZdkjGlUBDPM[] = {
/* columns rows colors chars-per-pixel */
"32 32 97 2 ",
"   c #010100",
".  c #000001",
"X  c #010001",
"o  c #000101",
"O  c #101010",
"+  c #111010",
"@  c #101110",
"#  c #101111",
"$  c #111111",
"%  c #202020",
"&  c #212020",
"*  c #202120",
"=  c #202021",
"-  c #202121",
";  c gray13",
":  c gray19",
">  c #313030",
",  c #303130",
"<  c #313130",
"1  c #303131",
"2  c #313131",
"3  c #601800",
"4  c #611900",
"5  c #671A1A",
"6  c #661B1A",
"7  c #671B1A",
"8  c #671A1B",
"9  c #661B1B",
"0  c gray25",
"q  c #414040",
"w  c #404041",
"e  c #414041",
"r  c #414141",
"t  c #505050",
"y  c #515050",
"u  c #505150",
"i  c #515150",
"p  c #505051",
"a  c #515051",
"s  c #515151",
"d  c #7F5B48",
"f  c #606060",
"g  c #606160",
"h  c #616160",
"j  c #606061",
"k  c #616061",
"l  c gray44",
"z  c #707170",
"x  c #707071",
"c  c #707171",
"v  c #717171",
"b  c #802000",
"n  c #A12801",
"m  c #A12901",
"M  c #802020",
"N  c #812020",
"B  c #812120",
"V  c #812021",
"C  c #812121",
"Z  c #C03001",
"A  c #E03900",
"S  c #E03801",
"D  c #A07900",
"F  c #C06100",
"G  c #C16101",
"H  c #E17100",
"J  c #E17001",
"K  c #C19101",
"L  c #FF8000",
"P  c #FF8001",
"I  c #E0A800",
"U  c #FFC001",
"Y  c #CA8F72",
"T  c #808080",
"R  c #818080",
"E  c #808180",
"W  c #808081",
"Q  c #818081",
"!  c #919090",
"~  c #A0A0A0",
"^  c #A1A1A0",
"/  c #A1A0A1",
"(  c #C88787",
")  c #E5A282",
"_  c #FFB690",
"`  c #FFD3AF",
"'  c #C0C0C0",
"]  c #C1C0C1",
"[  c #C0C1C1",
"{  c #D0D0D0",
"}  c gray82",
"|  c gray88",
" . c #E1E0E0",
".. c #E0E1E0",
"X. c #E1E1E0",
"o. c #E0E0E1",
"O. c #FFFEFF",
/* pixels */
"@ @ & O O @ & @ O & & O O @ * @ & * @ + & @ * @ @ @ @ & @ & & @ ",
"@ l R R l @ k k h E l k E z * g l W l W W k k * l W l h l l W g ",
"& j w w 1 & p w 1 p & 1 < w & t 1 w 1 > : w > @ p 1 w i w w : : ",
"+ l 1 1 1 @ k 1 1 w 1 w i < O h 1 w . 1 w p : O p w p q : & : w ",
"O E < w & @ j w < p w < w 1 & h w . X.+ a > : @ $ ; $ $ * @ @ * ",
"O E & p : @ y 1 w < i w 1 & $ p . X.[ @ . w @ w 2 $ i i k p g p ",
"& k : w w & + + @ O & O @ @ @ . [ / W l w O | O r $ p 1 1 1 w p ",
"@ l : : = & : + p p k p p w . X.[ E l p i X.' @ r $ k w w p w : ",
"@ E p w < q w & h w < w w & . U D r I r K ] + a 1 & h i w 7 p 2 ",
"@ k < w < w < O i < , i 1 . X.[ / R ] X.h + 2 C 1 @ h 1 i w 1 ; ",
"@ l < @ w 1 & @ h w : w 1 & . Y d d X.^ h e X C w @ p ; w 1 1 w ",
"; @ & & @ & & @ i w p 1 w . ` ` _ ) X.C C C X X 1 & p w & : & < ",
"$ k k s k p p & h & w w 1 . w H P G ~ 7 N N N C   ; + O O & O O ",
"$ v r s 1 1 1 @ h 6 1 i . ^ H P G N C C N N 8 C B B B N N p h p ",
"$ E r 2 1 i & @ f t , . X.2 P P N N C C N N N 7 7 N C C C w < < ",
"; v 2 r 1 i C & y w w . X.7 G H N N C C N N 7 7 N N C C C 7 q w ",
"@ E q q w 1 w @ . . . / q  .e N N N N N C N N C C C N B N N N a ",
"& l q p < & 1 . O.X.. / ] N N N N N N N N N N 8 C C N N N 5 8 N ",
"@ k q q < < . . A ^ N C N N N N N N N N N N N N C C C N N N 8 N ",
"@ l 1 < w . / [ A N N N N N C C N N N N N N B N C C N N N N N a ",
"@ k w w N . ^ N N C C C C 8 C C 6 N C C C C N N C C C C N C C e ",
"@ E q i C . N N 8 C C C N N C 8 N C C C N C N N C C C C N 8 e s ",
"O l w < 1 w N 7 N N N N N N N 7 N N N C N 5 N N N N C C C 7 a 2 ",
"O R i q a q 7 N N N N ( N N N N C N C 8 N N N N N N 7 C C 7 X 8 ",
"O l < < w . 6 C N N 8 C C ( N N N N N N N N N N N N N N N 5 B   ",
"& h 1 & & . N N N N C C C C N N N 7 6 N N N N C N N N N 5 5 7   ",
"O & O O + C 7 8 6 6 C C N N N B 8 C N N N N C C N N N N 7 7 . 2 ",
"O k i . X S m C N 6 6 7 N N N N C C N N N N C C N N 5 5 7 . 1 & ",
"@ l . } } S b e . 1 . . 7 8 N B C N C N N N N 7 7 7 . . . @ ; @ ",
"& E . } ] } } ] w . Z I K A 8 8 N C N N C 6 6 6 . . . y h i k a ",
"& l . . / ] ] ! 7 6 A S A n n 4 5 8 8 8 7 7 A m . . < < q 2 1 q ",
"@ E . . O.O.r 7 7 n n 4 4 4 4     8   4 4 4 4 4 . 1 w & 2 a w 1 "
};
