/* XPM */
static char *_551d8d64b474fb5fd12f77f6597615bZza9llXj4Y1IzpQS[] = {
/* columns rows colors chars-per-pixel */
"32 32 121 2 ",
"   c #010000",
".  c #020302",
"X  c #030203",
"o  c gray1",
"O  c #0D0C0C",
"+  c #0C0D0C",
"@  c #0C0D0D",
"#  c gray5",
"$  c #1A1B1A",
"%  c #1B1A1B",
"&  c #1B1B1B",
"*  c #281210",
"=  c #281211",
"-  c #281311",
";  c #291311",
":  c #341814",
">  c #351814",
",  c #341914",
"<  c #351914",
"1  c #352914",
"2  c #1A002C",
"3  c #1B002C",
"4  c #282828",
"5  c gray16",
"6  c #2C2C2C",
"7  c #2D2C2C",
"8  c #2C2D2C",
"9  c #2C2D2D",
"0  c #382E2B",
"q  c gray19",
"w  c #313030",
"e  c #313130",
"r  c #313131",
"t  c gray21",
"y  c #373636",
"u  c #3E3E3E",
"i  c #3F3E3E",
"p  c #3E3F3E",
"a  c #580000",
"s  c #7A0000",
"d  c #7B0100",
"f  c #4C2A06",
"g  c #4D2B06",
"h  c #4D2A07",
"j  c #4C2B07",
"k  c #60360B",
"l  c #61360B",
"z  c #61370B",
"x  c #4E2420",
"c  c #4F2420",
"v  c #4E2421",
"b  c #4E3C20",
"n  c #4E3D20",
"m  c #68322A",
"M  c #68332A",
"N  c #68332B",
"B  c #6F400E",
"V  c #764A1F",
"C  c #764B1F",
"Z  c #774B1F",
"A  c #52443E",
"S  c #52453F",
"D  c #68512A",
"F  c #68512B",
"G  c #2E014A",
"H  c gray26",
"J  c #424343",
"K  c #434343",
"L  c #4C4C4C",
"P  c #4C4C4D",
"I  c #4D4C4D",
"U  c #505050",
"Y  c #505150",
"T  c #505051",
"R  c #5D5C5C",
"E  c #5D5C5D",
"W  c #5C5D5D",
"Q  c #5D5D5D",
"!  c #66574D",
"~  c #746256",
"^  c #756256",
"/  c #746356",
"(  c gray40",
")  c #676766",
"_  c #676667",
"`  c #686968",
"'  c #696968",
"]  c #686869",
"[  c #747474",
"{  c #747574",
"}  c #9F0306",
"|  c #EE161F",
" . c #9A7400",
".. c #806335",
"X. c #816335",
"o. c #8D6336",
"O. c #98763F",
"+. c #8C7162",
"@. c #CD9A00",
"#. c #FFC000",
"$. c #AD8649",
"%. c #AC8749",
"&. c #9A8776",
"*. c #9B8776",
"=. c #A68475",
"-. c #C49850",
";. c #662892",
":. c #662992",
">. c #A864AA",
",. c #A964AA",
"<. c #828382",
"1. c #8E8E8E",
"2. c #8F8F8E",
"3. c #8E8F8F",
"4. c gray56",
"5. c #9A9A9B",
"6. c #9A9B9B",
"7. c #9B9B9B",
"8. c #B4B5B5",
"9. c #C8B39A",
"0. c #C9B39A",
/* pixels */
"o o X # X o o o . . o . o o # # o o o o X o o # # o X o o o o o ",
"o I E T ' T H Q ' Q I Q Y H Q I Q o o U H I H t H H y y 5 4 4 o ",
"o ' Y ' Y K H I Q H Y ) Q H H Q o ( o ( X X o o o t H t t 5 o o ",
"# Y Q Q H Y Q Q K Q y t # # % X ( 8 o o 8 ( ;.:.o t H H o o @.o ",
"X ] Q H Y ' Q t t 5 + # * = o o o o o q ( :.>.o T H o o =.+.~ o ",
"# ] Y T Q K y t 5 # = = < o *.*.~ ~ ~ q :.>.o 4 t I o #.+.=.+. .",
"X Q ' Y H t 5 # # * * * o ^ *./ A A A ~ q % o + # o #. .+.=.+.o ",
"X Y Q ' y 4 # = * : o o 8 ~ ^ q } | } A q L q o * + o o =.+.o + ",
"X Q ) H 5 & ; ; ; o >.>.>.A ^ A | } L ^ q q I X o * + o k g o o ",
"o I K y # ; < < ; o 9.2 0.3 A ^ ^ ^ ^ *.q q I a L o * o C C o O ",
"o ' Y # ; < v < = o o o o X 3 y A *.*.q q I a [ [ ( o o o.z o O ",
"o Y H # ; < v v < o 9.2 9.3 G 0 L 7 q q I q [ 3.2.[ L i e f o O ",
"o Q ' X < v M v : o A A A A A q e T u P t [ 3.2.{ P a u n 9 X @ ",
"# Q H X < v N M : m o . o 9 q i n r r a a 4.3.[ P a u u t r X @ ",
"# Q Y # X.v M M v m M v o q a a a a a j z z 5.T a a 9 r X X 5 X ",
"o L t % F $.-.-.-.-.$.. 2.[ k ( _ _ _ D k k j s a X o X W J t X ",
"o t 5 # A o o o F F F o 2.k V 1.3.<.<.I V h s s a o n n E H 5 o ",
"o 5 t + o =.=.=.. * : X X k 3.8.6.6.2.{ ( l s s o = < 1 ( t 5 # ",
"o e 4 . o +.! =.z o X 8 i a 1.8.6.6.3.{ _ l s s o = v . o o t # ",
". H q o o +.! +.z o.q i i a 2.6.6.6.2.{ _ l s s o = . i 5 . H o ",
"o Y H o o o o o o Z A n o o 2.2.3.3.3.[ ( l s s X : X u 9 X P X ",
"o Q H # < N v N < X X @ : o L 2.3.2.4.L V l l l X X u 9 n @ T X ",
"o Q Y # o.N N N v v N N v . k ( 3.3.( V l g g g & 9 5 u X t T X ",
"o Y ) % F O.-.-.$.%.%.%.%.o s f ( ( h g g a a a a % X X P t J @ ",
"o H Y # n n n F F F F F o s s a a a s s s s s a a X o n X o o o ",
"# y ( & 1 < < * - ; ; ; o s s s a a a s s s a a a X o o o o o o ",
"o t Y # < m m m v M m m o s s a a & a o X s 9 a % o o o o o o o ",
"# t H # < v v N < M M v o a a i i & o v o 9 u 9 % o o o o o o o ",
"o t t + * v v M : m x : v o i 5 & o v o o o u u & o o o o o o o ",
"o t t % - v < v : x : * < o 9 & X X o o o o o 5 u o o o o o o o ",
"+ 4 % + < < = < * * o o o o i o o o o o o o o 5 u X o o o o o @ ",
"o + o o o o o o o o 9.i 9.i 5 o o o o o 9.u 9.u 5 o o o o o @ o "
};
