/* XPM */
static char *_06b0f7d335f4228e399fb492bed78e5vbqdZgjXctPYZhj5[] = {
/* columns rows colors chars-per-pixel */
"32 32 121 2 ",
"   c #000100",
".  c #000101",
"X  c #010101",
"o  c #101010",
"O  c #111010",
"+  c #101110",
"@  c #111110",
"#  c #101011",
"$  c #111011",
"%  c #101111",
"&  c #1B1B1A",
"*  c #1A1A1B",
"=  c #1A1B1B",
"-  c #1B1B1B",
";  c #1A002C",
":  c #202020",
">  c #212020",
",  c #202120",
"<  c #212120",
"1  c #202021",
"2  c #202121",
"3  c #2C2C2C",
"4  c #2D2C2C",
"5  c #2C2C2D",
"6  c #382E2B",
"7  c gray19",
"8  c #313030",
"9  c #303130",
"0  c #313130",
"q  c #303031",
"w  c #313031",
"e  c #303131",
"r  c #3E3E3E",
"t  c #3E3F3E",
"y  c #3E3E3F",
"u  c #580000",
"i  c #580001",
"p  c #590101",
"a  c #7B0000",
"s  c #7A0100",
"d  c #4D2A06",
"f  c #4C2B06",
"g  c #4C2A07",
"h  c #4C2B07",
"j  c #60360B",
"k  c #60370B",
"l  c #403531",
"z  c #6F400E",
"x  c #6E400F",
"c  c #6E410F",
"v  c #774A1F",
"b  c #764B1F",
"n  c #52443F",
"m  c #53453F",
"M  c #2F004A",
"N  c gray25",
"B  c #404140",
"V  c #404041",
"C  c #414041",
"Z  c #404141",
"A  c #4C4C4C",
"S  c #4D4C4C",
"D  c #4C4D4C",
"F  c #4C4C4D",
"G  c #505050",
"H  c #515050",
"J  c #505150",
"K  c #515150",
"L  c #505051",
"P  c #505151",
"I  c #66574D",
"U  c #746356",
"Y  c #756356",
"T  c #756357",
"R  c #606060",
"E  c #606160",
"W  c #606061",
"Q  c #606161",
"!  c #676766",
"~  c #666667",
"^  c #666767",
"/  c #707170",
"(  c #707071",
")  c #717071",
"_  c #747474",
"`  c #757474",
"'  c #747574",
"]  c #9F0206",
"[  c #EE161F",
"{  c #9B7401",
"}  c #8D6237",
"|  c #8D7062",
" . c #8D7162",
".. c #CD9A00",
"X. c #FFC000",
"o. c #9A8776",
"O. c #9A8677",
"+. c #A68475",
"@. c #A78575",
"#. c #672892",
"$. c #672992",
"%. c #A864AA",
"&. c #A964AA",
"*. c #A964AB",
"=. c #808180",
"-. c #808081",
";. c #818181",
":. c #828382",
">. c #828283",
",. c #8F8F8E",
"<. c #8F8E8F",
"1. c #8E8F8F",
"2. c gray56",
"3. c #9B9A9B",
"4. c #9B9B9B",
"5. c #B4B5B4",
"6. c gray71",
"7. c #C8B29A",
"8. c #C9B29A",
"9. c #C8B39A",
"0. c #C9B39B",
/* pixels */
"o o - o o o 2 o o - 2 + # # 1 # 2     # 2 o 2 o o o # 2 # - 2 # ",
"o ( =.=.( o W W W o.( E -.( 2 W   ~   =.          =.) W ) )     ",
"2 W C C w 2 K C w G 2 5 e Z 2   ~ w     w ^ $.$.  w N H     ..  ",
"o ( w w w o W w w N w V F e           w ^ $.&.  K N     @.| T   ",
"+ _ e Z 2 @ E n w J Z q C   o.o.T T T 6 $.&.  o # 2   X.| @.| { ",
"+ %.2 P 0 @ P 5 C w G V   T o.T l S m T 8 -   C w   X.{ | @.|   ",
"- E 5 Z Z 2 % % o o     w T T 6 ] [ ] l 8 S 8   N #     @.|   K ",
"+ / q q 2 2 5 o K   &.&.&.m T S [ ] S | 8 8 S     # W   c d   w ",
"+ =.J B 9 Z N 2 E   9.; 9.; m T U U U O.w w S u F   W   b v X 0 ",
"+ E 9 B w C w o G           ; 6 C o.o.e w S u _ _ ~     } k X < ",
"+ / 9 , t w , + W   9.; 7.; M 6 J 8 5 e S w _ 2.<._ S t 5 d X C ",
", + , , @ , , + K   m m m m m e 8 S n S w _ 2.2._ S u t l 8 X 0 ",
"+ E E J E J P , E 2       w w t B w 9 u u 2.2._ F u C C e e X % ",
"+ / B J 9 9 w o E 8 N K   w u u u u u f k k 4.K u u e e X X Q P ",
"+ =.t 9 9 K 2 o R H w   <._ j ^ ^ ! ~ b k k h s p   . . e Z w w ",
", / 9 B 9       H N t   <.j b <.2.=.=.S b h s s u   Z Z Z P Z l ",
"# -.V t   @.@.@.  V H     j 2.5.4.4.2._ ^ j s s   2 w w V w V H ",
"- ( t F    .I @.k X   e t u 2.5.4.4.2._ ^ j s s   C w       w w ",
"o W C m   | I | c } e Z t u 2.4.4.4.2._ ^ j s s   o   t 5   : + ",
"o ( w w         X v C l     2.2.2.2.2._ ^ j s s   K   t 5   G F ",
"o W C C 8 5 w C w X X X w   S 2.<.<.,.S b j j j     t 3 t   N N ",
"o =.C K w 2 C K < 2 Q w C   j ^ ,.<.~ b j d d d - 3 3 V   w N K ",
"% / n 5 e t q l 2 o K w w   s g ~ ^ d d d u u u u -     w N H w ",
"% >.P t K V w S w $ W C   s s u u u s s s s s u u     N         ",
"% / e e Z V - w w 2 K w   s s s u u u s s s u u u               ",
"2 Q e 2 2 e w w 2 # K N   s s u u - u     s 5 u -               ",
"% 2 % + + 2 o 2 + # 2 +   u u C l 2   w   5 t 3 -               ",
"% P P ^ P + P K W W P P W   C 5 -   w       V N -               ",
"@ ( w 2 Z 2 J w l w Z w K   3 *               3 V X           # ",
"- =.G t q # W t w N         V X               3 V             H ",
"2 ( Z q C o W C H   9.V 0.V 3 X       X 0.t 9.N 5           w N ",
"o =.e Z P o G w 1                 X                       K N w "
};
