/* XPM */
static char *_6521cf121da4af9b1beb19f30844c0cdjUJRnIQlSJbzKPd[] = {
/* columns rows colors chars-per-pixel */
"32 32 125 2 ",
"   c black",
".  c #020203",
"X  c #020303",
"o  c gray1",
"O  c #0D0C0D",
"+  c gray5",
"@  c #1C0C0F",
"#  c #1D0C0F",
"$  c #1D0D0F",
"%  c #111011",
"&  c #1B1A1A",
"*  c #1B1B1B",
"=  c #281112",
"-  c #281013",
";  c #291113",
":  c #351419",
">  c #351519",
",  c #342815",
"<  c #1B002C",
"1  c #1A002D",
"2  c #202120",
"3  c #282929",
"4  c gray16",
"5  c #2C2C2C",
"6  c #2D2C2C",
"7  c #2C2C2D",
"8  c #392E2A",
"9  c gray19",
"0  c #313030",
"q  c #303130",
"w  c #313130",
"e  c gray21",
"r  c #373636",
"t  c #363736",
"y  c #373736",
"u  c #363637",
"i  c #373637",
"p  c #363737",
"a  c #3E3E3E",
"s  c #3E3E3F",
"d  c #3F3E3F",
"f  c #3E3F3F",
"g  c #580000",
"h  c #590001",
"j  c #580101",
"k  c #7A0000",
"l  c #7B0000",
"z  c #4C2A06",
"x  c #4D2A07",
"c  c #60360A",
"v  c #61360B",
"b  c #60370B",
"n  c #4E2026",
"m  c #4E2027",
"M  c #403530",
"N  c #682A34",
"B  c #682B35",
"V  c #6F400E",
"C  c #6E410E",
"Z  c #774B1E",
"A  c #764B1F",
"S  c #52443E",
"D  c #52453F",
"F  c #53453F",
"G  c #68512A",
"H  c #69502B",
"J  c #2E004B",
"K  c #434342",
"L  c #424243",
"P  c #434243",
"I  c #424343",
"U  c #434343",
"Y  c #4C4C4C",
"T  c #4D4C4C",
"R  c #4C4D4C",
"E  c #4C4D4D",
"W  c #515050",
"Q  c #505150",
"!  c #505051",
"~  c #515051",
"^  c #515151",
"/  c gray36",
"(  c #5D5C5C",
")  c #5D5D5C",
"_  c #5C5C5D",
"`  c #5D5D5D",
"'  c #67574D",
"]  c #756356",
"[  c #746357",
"{  c #606060",
"}  c #616060",
"|  c #676666",
" . c #666766",
".. c #666667",
"X. c #686868",
"o. c #696869",
"O. c DimGray",
"+. c #707170",
"@. c #747474",
"#. c #757474",
"$. c #747575",
"%. c #9F0306",
"&. c #EE161E",
"*. c #9A7500",
"=. c #806335",
"-. c #8D6237",
";. c #99763F",
":. c #8C7162",
">. c #8C7063",
",. c #CC9A00",
"<. c #FFC000",
"1. c #9B8776",
"2. c #A78575",
"3. c #672992",
"4. c #A964AA",
"5. c #828383",
"6. c #8F8F8E",
"7. c #8F8E8F",
"8. c #8E8F8F",
"9. c gray56",
"0. c #9B9A9B",
"q. c #9A9B9B",
"w. c #9B9B9B",
"e. c #B4B5B5",
"r. c #C9B39A",
/* pixels */
"      o +         X   X X     + + X o o     o o + + o o       o ",
"    ^ ` ^ O.^ U ` O.` ^ ` ^ U ` ^     ` ^ L ^ U r U U r r 3 3 3 ",
"  o O.^ O.^ U U W / L ^ O.` U U   ..o `           r r U r r     ",
"  + ^ ` ( U ^ ` ` L ` r r + +   ..w     w ..3.3.  U r U   o ,.  ",
"    O./ U W X.` r r 3 + +             w ..3.4.  r ^     2.:.]   ",
"  O O.Q ^ ( L r r 3 +       1.1.[ ] ] 0 3.4.  + 3 r   <.:.2.:.*.",
"    ( O.^ L r 3 + +   ^   ] 1.] Y D S ] 0 &     +   <.*.:.2.:.  ",
"    ^ ( O.r 3 + ; $     w ] ] w %.&.%.S 0 T w   $ ;     2.:.  3 ",
"  o } O.L 3 & ; ;   4.4.4.F ] D &.%.L ] 0 w Y     ; ;   C x   r ",
"    ^ U r + > ; ;   r.1 r.< F ] ] ] ] 1.9 w Y j Y   ;   A A   3 ",
"    O.~ + > B ; ;           1 r D 1.1.9 9 Y j #.$...    -.C   r ",
"    ~ L + > B ; ;   r.1 r.< J 8 T 0 9 9 Y 9 #.8.8.$.Y a 5 x   U ",
"    ` O.  > m ; ;   D D D D D w 0 Y a Y w $.8.8.$.Y j a a 5   3 ",
"  + ` L   > m ; ; $       w w a M r w j j 8.8.$.Y j a a w w   3 ",
"  + ` ^ + $ $ ;.= @       w j j j j j x C v 0.Y j j w w     r 3 ",
"  o ^ p * ; ; ;.G $     8.$.v ........A v v x k j       ; ` U i ",
"  o p 3 +       H ,     6.v A 9.8.5.5.Y Z x k k j   =.> > ` L 3 ",
"    3 r   2.2.2.  ,       v 9.e.0.0.8.$...v k k   ; =.$ $ O.r 3 ",
"    r 3   :.' 2.C     w d j 9.e.0.0.8.$...b k k   ; ;       L r ",
"  o I r   :.' :.C -.w a a j 9.0.0.0.8.#...b k k   ;   a 5   ^ L ",
"    ^ U           Z d f     8.6.6.6.8.$.| v k k   ;   d 5   ^ ^ ",
"  o ` U + > m ; ;           T 6.8.8.6.Y Z v v v     d 5 a   r T ",
"    ( ^ + $ $ ;.; $   w %   v ..8.6...Z v x x x * 5 5 a   ` r ^ ",
"    W O.& = ; ;.H $   % %   k x ....x x x j j j j *     ; ^ r L ",
"  o L ^ + > > =.G ,   w   k k j j j k k l k l j j     >         ",
"  + r O.* $ $ H - ,   w   k k k j j j l k k j j j     o         ",
"  o p ^ + : B ; ; $   ^   k k j j * j     l 5 j *               ",
"  + y K O : N = ; $   }   j j d a *   }   5 f 5 *               ",
"}   r r O : n = $   ^ ^ ^   d 5 *   ^       f f *               ",
"+.o r i & : n @     } } }   5 *               5 L             * ",
"+.+ 3 * + $ @   w           d                 5 d     X       * ",
"w o + o       2 2   r.a r.d 5 o         r.a r.a 5           o + "
};
