/* XPM */
static char *cf6762b67c574033dc700e7de89fb06e9Oh7ZcbAi3Rr9tu2[] = {
/* columns rows colors chars-per-pixel */
"32 32 8 1 ",
"  c #101010",
". c #202020",
"X c gray19",
"o c gray25",
"O c #505050",
"+ c #606060",
"@ c gray44",
"# c #808080",
/* pixels */
"  .   .  ..   . ..  . .    . .. ",
" @##@ +++#@+#@.+@#@##++.@#@+@@#+",
".+ooX.OoXO.XXo.OXoXXXoX OXoOooXX",
" @XXX +XXoXoOX +XoOXoOX OoOoX.Xo",
" #Xo. +oXOoXoX.+oXX.OXX  .  .  .",
" #.OX OXoXOoX. OX.ooXoXoX OO+O+O",
".+Xoo.    .    +oXXXX.oOo OXoXoO",
" @XX..X OO+OOo Ooo.oXXooo +ooOoX",
" #OoXoo.+oXoo. +XXXoOOXOX.+OooOX",
" +XoXoX OXXOXX.+o..XooXoX +XOoX.",
" @X.oX. +oXoX. OXXo.Xoooo O.oXXo",
". .. .. OoOXoX oXoXoX.XoX.Oo.X.X",
" ++O+OO.+.ooX.  ..  .    .   .  ",
" @oOXXX +XoOoXoXX O+O+OO+O++OO+O",
" #oXXO. +OXoX.XoX.OXXO.XX.oOXoXX",
".@XoXOX.Oooo.oOoo OXooXooXoooOoo",
" #oooXo OoOXXoXoX +oOXo.X.XXoXoO",
".@oOX.X oXXo.XoXo.OOoOXXooXoX.XX",
" +ooXXo  .  .  .  +oXXo.   .  . ",
" @XXooXXo O+OO+OO.+ooX.. OO+O+OO",
" +ooXXXoX OoXoXXo OX.ooX.OoXX.oo",
" #oOX.oO..+XoOoO..O.XoX. +XooXoO",
" @oXXoXo. OXX.Oo. OXoX.X.+XOXoOX",
" #OoOoXoX +oOX       .   +.oXXo.",
" @XXoo.XX.OXX. OO+O+O O+OoXXooXo",
".+X..XXX. Oo.X OoXoXo +X.Xoo.XoX",
" .   . .  .    OoOoX. O.ooX.XXoX",
" +O+O OO++OO+O +XoXoX.OXoXXXooX.",
" @X.o.OXoXoXOo OXo.Xo    . .  . ",
".#OoX +oXoO.X. +oOo.XoX O+OO+O+O",
".@oXo +oOoXXOo OXoXXoX. +oXXoXXo",
" #XoO OX.XOoXX OXXooXXo OXo.XOoX"
};
