/* XPM */
static char *_2cfacfb93d94a5ca94ba0410901c8f5anH3YCsbBPMHYEy6[] = {
/* columns rows colors chars-per-pixel */
"32 32 256 2 ",
"   c black",
".  c #010101",
"X  c #020202",
"o  c gray1",
"O  c #040404",
"+  c gray2",
"@  c #060606",
"#  c #070707",
"$  c gray3",
"%  c #090909",
"&  c gray4",
"*  c #0B0B0B",
"=  c #0C0C0C",
"-  c gray5",
";  c #0E0E0E",
":  c gray6",
">  c #101010",
",  c #111111",
"<  c gray7",
"1  c #131313",
"2  c gray8",
"3  c #151515",
"4  c #161616",
"5  c gray9",
"6  c #181818",
"7  c #191919",
"8  c gray10",
"9  c #1B1B1B",
"0  c gray11",
"q  c #1D1D1D",
"w  c #1E1E1E",
"e  c gray12",
"r  c #202020",
"t  c gray13",
"y  c #222222",
"u  c #232323",
"i  c gray14",
"p  c #252525",
"a  c gray15",
"s  c #272727",
"d  c #282828",
"f  c gray16",
"g  c #2A2A2A",
"h  c gray17",
"j  c #2C2C2C",
"k  c #2D2D2D",
"l  c gray18",
"z  c #2F2F2F",
"x  c gray19",
"c  c #313131",
"v  c #323232",
"b  c gray20",
"n  c #343434",
"m  c #353535",
"M  c gray21",
"N  c #373737",
"B  c gray22",
"V  c #393939",
"C  c #3A3A3A",
"Z  c gray23",
"A  c #3C3C3C",
"S  c gray24",
"D  c #3E3E3E",
"F  c #3F3F3F",
"G  c gray25",
"H  c #414141",
"J  c gray26",
"K  c #434343",
"L  c #444444",
"P  c gray27",
"I  c #464646",
"U  c gray28",
"Y  c #484848",
"T  c #494949",
"R  c gray29",
"E  c #4B4B4B",
"W  c #4C4C4C",
"Q  c gray30",
"!  c #4E4E4E",
"~  c gray31",
"^  c #505050",
"/  c #515151",
"(  c gray32",
")  c #535353",
"_  c gray33",
"`  c #555555",
"'  c #565656",
"]  c gray34",
"[  c #585858",
"{  c gray35",
"}  c #5A5A5A",
"|  c #5B5B5B",
" . c gray36",
".. c #5D5D5D",
"X. c gray37",
"o. c #5F5F5F",
"O. c #606060",
"+. c gray38",
"@. c #626262",
"#. c gray39",
"$. c #646464",
"%. c #656565",
"&. c gray40",
"*. c #676767",
"=. c #686868",
"-. c DimGray",
";. c #6A6A6A",
":. c gray42",
">. c #6C6C6C",
",. c #6D6D6D",
"<. c gray43",
"1. c #6F6F6F",
"2. c gray44",
"3. c #717171",
"4. c #727272",
"5. c gray45",
"6. c #747474",
"7. c gray46",
"8. c #767676",
"9. c #777777",
"0. c gray47",
"q. c #797979",
"w. c gray48",
"e. c #7B7B7B",
"r. c #7C7C7C",
"t. c gray49",
"y. c #7E7E7E",
"u. c gray50",
"i. c #808080",
"p. c #818181",
"a. c gray51",
"s. c #838383",
"d. c #848484",
"f. c gray52",
"g. c #868686",
"h. c gray53",
"j. c #888888",
"k. c #898989",
"l. c gray54",
"z. c #8B8B8B",
"x. c gray55",
"c. c #8D8D8D",
"v. c #8E8E8E",
"b. c gray56",
"n. c #909090",
"m. c gray57",
"M. c #929292",
"N. c #939393",
"B. c gray58",
"V. c #959595",
"C. c gray59",
"Z. c #979797",
"A. c #989898",
"S. c gray60",
"D. c #9A9A9A",
"F. c #9B9B9B",
"G. c gray61",
"H. c #9D9D9D",
"J. c gray62",
"K. c #9F9F9F",
"L. c #A0A0A0",
"P. c gray63",
"I. c #A2A2A2",
"U. c gray64",
"Y. c #A4A4A4",
"T. c #A5A5A5",
"R. c gray65",
"E. c #A7A7A7",
"W. c gray66",
"Q. c #A9A9A9",
"!. c #AAAAAA",
"~. c gray67",
"^. c #ACACAC",
"/. c gray68",
"(. c #AEAEAE",
"). c #AFAFAF",
"_. c gray69",
"`. c #B1B1B1",
"'. c #B2B2B2",
"]. c gray70",
"[. c #B4B4B4",
"{. c gray71",
"}. c #B6B6B6",
"|. c #B7B7B7",
" X c gray72",
".X c #B9B9B9",
"XX c gray73",
"oX c #BBBBBB",
"OX c #BCBCBC",
"+X c gray74",
"@X c gray",
"#X c gray75",
"$X c #C0C0C0",
"%X c #C1C1C1",
"&X c gray76",
"*X c #C3C3C3",
"=X c gray77",
"-X c #C5C5C5",
";X c #C6C6C6",
":X c gray78",
">X c #C8C8C8",
",X c gray79",
"<X c #CACACA",
"1X c #CBCBCB",
"2X c gray80",
"3X c #CDCDCD",
"4X c #CECECE",
"5X c gray81",
"6X c #D0D0D0",
"7X c gray82",
"8X c #D2D2D2",
"9X c LightGray",
"0X c gray83",
"qX c #D5D5D5",
"wX c gray84",
"eX c #D7D7D7",
"rX c #D8D8D8",
"tX c gray85",
"yX c #DADADA",
"uX c gray86",
"iX c gainsboro",
"pX c #DDDDDD",
"aX c gray87",
"sX c #DFDFDF",
"dX c gray88",
"fX c #E1E1E1",
"gX c #E2E2E2",
"hX c gray89",
"jX c #E4E4E4",
"kX c gray90",
"lX c #E6E6E6",
"zX c #E7E7E7",
"xX c gray91",
"cX c #E9E9E9",
"vX c #EAEAEA",
"bX c gray92",
"nX c #ECECEC",
"mX c gray93",
"MX c #EEEEEE",
"NX c #EFEFEF",
"BX c gray94",
"VX c #F1F1F1",
"CX c gray95",
"ZX c #F3F3F3",
"AX c #F4F4F4",
"SX c gray96",
"DX c #F6F6F6",
"FX c gray97",
"GX c #F8F8F8",
"HX c #F9F9F9",
"JX c gray98",
"KX c #FBFBFB",
"LX c gray99",
"PX c #FDFDFD",
"IX c #FEFEFE",
"UX c white",
/* pixels */
"4.7.9.q.e.t.y.w.7.4.4.3.3.6.0.r.t.e.q.9.8.q.p.z.N.B.x.g.i.r.r.t.",
"7.M.P.U.R.R.U.K.G.F.F.H.L.E.(.).~.T.P.K.P.E.'..XOXXX_.~.W.^.[. X",
"9.A.E.R./.>X2X2X2X2X2X3XtXsXsXsXsXsXaXeX2X5XdXkXkXsX4X3X3XrXkXjX",
"q.J.J.B.L.U.-X6X5X5X7XaXgXgXgXgXgXgXrX5X0XjXzXzXpX6X5X6XsXzXzXzX",
"i.L.&X`.a.L.;X6X5X0XdXgXgXgXgXgXfXqX5XeXlXzXlXtX5X5X8XgXzXzXzXlX",
"h.I.%X4X<X2X4X5XeXfXgXgXgXgXgXsX8X5XiXzXzXkXqX5X5XqXkXzXzXzXdX9X",
"p.H.#X6X5X5X6XyXgXgXgXgXgXgXiX6X7XdXzXzXgX8X5X5XtXlXzXzXzXpX8X8X",
"t.A.+X6X5X7XpXgXgXgXgXgXgXtX5X9XhXzXzXsX6X5X6XpXzXzXzXlXtX7XrXkX",
"e.V.oX6X9XdXgXgXgXgXgXfXwX5XwXkXzXzXyX5X5X7XfXzXzXzXjXqX7XuXzXzX",
"8.m.XXeXfXgXgXgXgXgXdX9X5XyXzXzXkXwX5X5X0XjXzXzXzXgX9X8XsXzXzXzX",
"3.v.&XjXgXgXgXgXgXpX7X6XsXzXzXhX9X5X5XeXlXzXzXzXaX8X0XhXzXzXzXlX",
"6.v.*XjXgXgXgXgXyX6X8XgXzXzXdX7X5X5XiXzXzXzXlXyX7XwXkXzXzXzXgXtX",
"5.b.*XjXgXgXfXeX5XqXkXzXzXiX5X5X7XdXzXzXzXkXwX7XyXlXzXzXzXdXrXrX",
"3.b.=XjXgXdX0X5XtXlXzXlXeX5X5X9XhXzXzXzXhX0X8XaXzXzXzXlXpXrXrXrX",
"2.c.*XjXaX7X6XpXzXzXjX0X5X5XwXkXzXzXzXsX8X9XgXzXzXzXkXuXrXrXrXrX",
"<.z.&XaX6X7XfXzXzXfX7X5X5XyXzXzXzXzXuX7XqXjXzXzXzXhXtXrXrXrXrXrX",
"3.c. X7X0XjXzXzXpX6X5X6XsXzXzXzXlXrX7XtXlXzXzXzXfXrXrXrXrXrXrXrX",
"6.n.XXtXlXzXlXtX5X5X8XgXzXzXzXjX0X7XpXzXzXzXzXaXrXrXrXrXrXrXrXeX",
"8.M.:XxXzXkXqX5X5XqXkXzXzXzXdX8X8XdXzXzXzXlXiXrXrXrXrXrXrXrX7X&X",
"q.N.:XcXgX8X5X5XtXlXzXzXzXpX7X0XjXzXzXzXjXyXrXrXrXrXrXrXrX3X$X$X",
"0.n.;XfX6X5X6XpXzXzXzXlXtX7XrXlXzXzXzXgXtXrXrXrXrXrXrXeX>X$X%X&X",
"3.x. X8X5X7XfXzXzXzXjXqX7XuXzXzXzXzXsXrXrXrXrXrXrXrXqX-X$X$X2XjX",
"1.z.|.7X0XjXzXzXzXgX9X8XsXzXzXzXlXiXrXrXrXrXrXrXrX8X&X$X$X8XlXzX",
"2.c. XtXlXzXzXzXaX8X0XhXzXzXzXkXyXrXrXrXrXrXrXrX4X%X$X&XtXzXzXzX",
"4.B.,XxXzXzXlXyX7XwXkXzXzXzXhXtXrXrXrXrXrXrXeX<X$X$X-XsXzXzXzXzX",
"0.H.4XcXzXkXwX7XyXlXzXzXzXdXrXrXrXrXrXrXrXwX;X$X$X<XjXzXzXzXzXlX",
"s.R.8XzXaX7X7XaXzXzXzXlXpXrXrXrXrXrXrXrX9X*X$X$X6XlXzXzXzXzXgXtX",
"g.Y.7X%Xa.K.eXcXzXzXkXuXrXrXrXrXrXrXrX6X%X$X%XeXzXzXzXzXzXdXrXrX",
"s.K.H.M.S.L.eXcXzXhXtXrXrXrXrXrXrXrX1X$X$X*XpXzXzXzXzXlXpXrXrXrX",
"0.B.H.Z.Y.tXgXhXpX0X9X9X9X9X9X9X9X=X+XOX&XiXdXdXdXfXdXeXqX0X9X9X",
"4.b.G.F.J.H.V.A.S.N.k.s.y.u.d.k.b.m.n.z.d.u.w.0.0.r.f.n.K.G.x.s.",
"h.B.H.U.(.%XuX8XOX/.P.K.P.W.[.$X7X-X].T.H.A.V.V.S.Y.{.OXoX).L.A."
};
