/* XPM */
static char *_d34d535264d4768a4a8fa8a01eb4459f0chLDsMtONEkjAK[] = {
/* columns rows colors chars-per-pixel */
"32 32 38 1 ",
"  c None",
". c black",
"X c #101010",
"o c gray19",
"O c #601800",
"+ c gray25",
"@ c #505050",
"# c #7F5A48",
"$ c #606060",
"% c gray44",
"& c #802000",
"* c #A02800",
"= c #E00000",
"- c red",
"; c #C03000",
": c #E03800",
"> c #804000",
", c #A05000",
"< c #806000",
"1 c #A07800",
"2 c #FF4000",
"3 c #C06000",
"4 c #E07000",
"5 c #C09000",
"6 c #FF8000",
"7 c #E0A800",
"8 c #FFC000",
"9 c #CA8F72",
"0 c #808080",
"q c #909090",
"w c #A0A0A0",
"e c #E5A282",
"r c #FFB691",
"t c #FFD3AF",
"y c #C0C0C0",
"u c #D0D0D0",
"i c gray88",
"p c white",
/* pixels */
"                                ",
"                                ",
"                 .              ",
"                .iX             ",
"               .iyX. X          ",
"              .yw0%+XiX         ",
"             .iy0%@@iyX         ",
"             .81+7+5yX          ",
"            .iyw0yi$X           ",
"             .9##iw$+.          ",
"            .ttrei0$+..         ",
"            .+463w%+wy%.        ",
"           .w463,++w+w%%..      ",
"          .io664+owi%+w+0+.     ",
"          .i+343o%w%+,3463+.    ",
"       ...w+i+3+wy%+,44=,6,+.   ",
"      .pi.wy%i%i%w@w,4=-=,30.   ",
"     ..:ww%%wyi%w%@+36=2333+.   ",
"    .wy:%+w+y%wi%w@w464=64,0.   ",
"    .w%ow+%@+++%yw@+464=44,+.   ",
"    .y%o%+.o15<o+@%034=2=4,0.   ",
"     .:*+..+581+7+1+046=,30+.   ",
"     .:&. .+<1<oo++o+3443>+...  ",
"    .:*&. .w+oow0y0@o+0+0+..... ",
"    .:*.  .0w%o0w0w0woo........ ",
"    .:&. .wy0yoo0y0w0wo.......  ",
"  ..:*&. .%@%@oo@%@%@%o......   ",
" .uu:&+. ..75**..**75o......    ",
" .uyuuy+.;75::*..;:*75o...      ",
" ..wyyq%*:::**O..O;:::*..       ",
" ..pp+%%**OOOO....OOOOO.        ",
"  .....................         "
};
