/* XPM */
static char *b67eb1f21e404af4ab29b301f99bef83Vqqux0pg5dQAevkH[] = {
/* columns rows colors chars-per-pixel */
"32 32 151 2 ",
"   c black",
".  c #030202",
"X  c #020302",
"o  c #030302",
"O  c #030203",
"+  c #020303",
"@  c gray1",
"#  c #0D0C0C",
"$  c #0C0D0C",
"%  c #0C0D0D",
"&  c gray5",
"*  c #1C0C0E",
"=  c #1C0D0E",
"-  c #1D0C0F",
";  c #1D0D0F",
":  c #101010",
">  c #111010",
",  c #101011",
"<  c #1B1B1A",
"1  c #1B1A1B",
"2  c #1A1B1B",
"3  c #1B1B1B",
"4  c #291012",
"5  c #291112",
"6  c #281013",
"7  c #291013",
"8  c #291113",
"9  c #341418",
"0  c #351518",
"q  c #341419",
"w  c #351519",
"e  c #352914",
"r  c #202020",
"t  c #202120",
"y  c #292828",
"u  c #282928",
"i  c #282829",
"p  c #292829",
"a  c #282929",
"s  c gray16",
"d  c gray19",
"f  c #313030",
"g  c #303130",
"h  c #303031",
"j  c #303131",
"k  c #363736",
"l  c #373736",
"z  c #373637",
"x  c #363737",
"c  c #373737",
"v  c #611900",
"b  c #601801",
"n  c #4E2126",
"m  c #4F2027",
"M  c #4E2127",
"N  c #682B34",
"B  c #414040",
"V  c #404140",
"C  c #414140",
"Z  c #404041",
"A  c #414041",
"S  c #404141",
"D  c #434242",
"F  c #424342",
"G  c #434342",
"H  c #424243",
"J  c #434243",
"K  c #424343",
"L  c #434343",
"P  c #505050",
"I  c #515050",
"U  c #505150",
"Y  c #515150",
"T  c #505151",
"R  c #515151",
"E  c gray36",
"W  c #5D5D5C",
"Q  c #7F5A49",
"!  c #606061",
"~  c #686868",
"^  c #686869",
"/  c DimGray",
"(  c gray44",
")  c #717070",
"_  c #707170",
"`  c #717170",
"'  c #707071",
"]  c #707171",
"[  c #717171",
"{  c #802100",
"}  c #802001",
"|  c #A02800",
" . c #A02900",
".. c #A12801",
"X. c #E00000",
"o. c #E00100",
"O. c #FF0100",
"+. c #C03000",
"@. c #C03001",
"#. c #E03800",
"$. c #E13800",
"%. c #E13900",
"&. c #A05100",
"*. c #A15100",
"=. c #A15001",
"-. c #806001",
";. c #A07800",
":. c #A07900",
">. c #A07801",
",. c #98763E",
"<. c #99773E",
"1. c #FF4000",
"2. c #FF4001",
"3. c #C16000",
"4. c #C06100",
"5. c #C06001",
"6. c #E17000",
"7. c #E07100",
"8. c #E07001",
"9. c #E17101",
"0. c #C09000",
"q. c #C09101",
"w. c #FF8000",
"e. c #FF8101",
"r. c #E0A800",
"t. c #E1A800",
"y. c #E0A901",
"u. c #FEC100",
"i. c #FFC001",
"p. c #CA8F72",
"a. c #818080",
"s. c #808180",
"d. c #808081",
"f. c #909190",
"g. c #A0A0A0",
"h. c #A0A1A0",
"j. c #A0A0A1",
"k. c #A0A1A1",
"l. c gray63",
"z. c #E5A282",
"x. c #FFB691",
"c. c #FFD3AF",
"v. c #C0C0C0",
"b. c #C1C0C1",
"n. c #C0C1C1",
"m. c #D0D0D0",
"M. c #D1D0D0",
"N. c #D1D1D0",
"B. c gray88",
"V. c #E0E1E0",
"C. c white",
/* pixels */
"        & @       @   @ @   + & & + +       @ @ & &   O   O   O ",
"    R W R / R L W / W R W R J W R W L W R H R L x L L l x u p u ",
"  @ / R ^ R L L I W H R / W L J W W   W / W W H L x x L l z p p ",
"  & R W W L R W W H W x x & & 1 3   V., & u c R R H l L L l x u ",
"    ~ E J R ^ E x x u & &         V.n.,   , , u x I L L l L x u ",
"  & ~ P R W H x x u #     j !   n.l.d./ C > V., p l I L L x L u ",
"    W / R H x i # &   R F F   V.n.d.' I I V.n., # # x x l L H u ",
"    I W / x i & 8 -   r r j   i.>.H t.H 0.n.,   - 6 & p l u z u ",
"  @ W / H i 1 8 6 -         V.n.k.s.n.V.! , O   - 6 6 & u x p x ",
"  @ R L x & w 8 6 -           p.Q Q V.k.! H     - 6 6 9 & l H u ",
"    / R & w N 7 8 -         c.c.x.z.V.s.! F O O - 6 6 N 9 H x x ",
"    R L & w N 7 8 -         F 9.9.>.l.[ n l.n.[   8 6 N 9 W x L ",
"    W /   w m 8 8 -       l.9.e.8.=.H H g.B f.[ ` O O m 9 ~ u y ",
"  & W F   w m 7 8 -     V.j e.e.9.H h l.B.' H l.D a.L O 9 / l y ",
"  & W R & ; ; <.8 -     V.F 4.9.3.h ' j.` B =.4.9.e.4.L   / l u ",
"  @ R c 3 8 8 <.      l.F N.L 4.Z j.b.' H =.6.9.X.=.9.=.L   L l ",
"  @ z u & w w   C.V.  k.n.] V.] B.( g.I l.=.9.X.O.X.&.&.f.@ D y ",
"    u x & -     $.h.h._ ] k.n.V.' j.' P F =.e.X.2.4.4.4.H @ l y ",
"    c u     k.n.#.] V k.S n.] k.B.( g.P l.9.e.9.o.e.9.&.a.  L l ",
"  @ L c O   k.` g k.V ] T S S F ( v.g.P F 9.e.9.X.9.7.&.F   I L ",
"    R L @   n.[ g ' Z   c >.q.-.f n P ] s.=.9.X.2.X.9.=.a.  R R ",
"@ O W F & w   $. .Z     L q.i.>.H y.V >.F s.9.e.X.=.4.s.H   x P ",
"    W R & -   #.{       m -.>.-.x j H V c F *.9.9.*.{ F       R ",
"    I / 1   $...}       l.L j j l.s.n.s.R g I a.G f.H           ",
"  @ L R &   $...  e     s.l.' s a.l.a.l.d.g.j j o o             ",
"  & z / 3   $.{   e   l.v.d.b.f x a.b.[ g.s.g.j @ o           c ",
"  @ z   . %. .v   -   [ P ' R j j R ' R ' R [ j O     @ @   s s ",
"  &   N.N.%.{ L   -     t.0.| ..    | | t.0.j             L s s ",
"! @   N.b.N.N.b.F   @.y.0.$.#. .    @.$. .y.0.g       m w F < u ",
"[       l.b.b.f.[ ..$.$.#. . .v     v @.#.#.#. .    ; n w c < < ",
"[ &     C.C.m [ [ ....b b v v         v v b v v   R   ; ; c < 3 ",
"j @ &     . . >   +                 +           r r r     &   & "
};
