/* XPM */
static char *_9995cd0c3bd466784502abf3b49845cMjbrVJWaUtRlm6lD[] = {
/* columns rows colors chars-per-pixel */
"32 32 110 2 ",
"   c #010000",
".  c #010101",
"X  c #101010",
"o  c #111010",
"O  c #101110",
"+  c #101011",
"@  c #111011",
"#  c #101111",
"$  c #202020",
"%  c #202120",
"&  c #202021",
"*  c #212021",
"=  c gray19",
"-  c #313030",
";  c #303031",
":  c #313131",
">  c #601800",
",  c #611800",
"<  c #611900",
"1  c gray25",
"2  c #414040",
"3  c #414140",
"4  c #404041",
"5  c #414041",
"6  c #404141",
"7  c #414141",
"8  c #505050",
"9  c #515050",
"0  c #505150",
"q  c #515150",
"w  c #505051",
"e  c #515051",
"r  c #505151",
"t  c #7F5A48",
"y  c #606060",
"u  c #616060",
"i  c #606160",
"p  c #616160",
"a  c #606061",
"s  c gray44",
"d  c #717070",
"f  c #707170",
"g  c #717071",
"h  c #707171",
"j  c #717171",
"k  c #802000",
"l  c #A02800",
"z  c #A12800",
"x  c #A12900",
"c  c #A12901",
"v  c #E10000",
"b  c #E00100",
"n  c #E00001",
"m  c red",
"M  c #C13000",
"N  c #E03800",
"B  c #E03900",
"V  c #E13801",
"C  c #814001",
"Z  c #A15000",
"A  c #A05101",
"S  c #806000",
"D  c #A07800",
"F  c #A17801",
"G  c #FF4000",
"H  c #C06000",
"J  c #C16100",
"K  c #E17000",
"L  c #E07100",
"P  c #E17100",
"I  c #E07001",
"U  c #E07101",
"Y  c #C09000",
"T  c #C19000",
"R  c #C19001",
"E  c #FF8000",
"W  c #FF8100",
"Q  c #FF8001",
"!  c #E0A800",
"~  c #E1A800",
"^  c #E0A801",
"/  c #FFC100",
"(  c #FFC001",
")  c #CA8F72",
"_  c #808080",
"`  c #818180",
"'  c #808081",
"]  c #818081",
"[  c #909090",
"{  c #A0A0A0",
"}  c #A1A0A0",
"|  c #A1A1A0",
" . c #A0A0A1",
".. c gray63",
"X. c #E5A283",
"o. c #FFB690",
"O. c #FED3AE",
"+. c #C1C0C0",
"@. c #C0C1C0",
"#. c #C1C1C0",
"$. c #C0C0C1",
"%. c #D0D0D0",
"&. c #D0D0D1",
"*. c gray88",
"=. c #E1E0E0",
"-. c #E0E1E0",
";. c #E1E1E0",
":. c #E0E0E1",
">. c #E1E0E1",
",. c #FEFEFF",
/* pixels */
"# # $ X X X $ X # $ $ O O # $ O $ # # # * # * # # # # % X % % X ",
"# s ] ] s # y y u ` h i _ s $ i s _ j _ ` u p $ h ` s u f f ] y ",
"$ y 2 2 = $ e 2 = r $ = - 1 $ e : 7 : : : 7 - # r = 5 r 2 2 = = ",
"X s = = = X y = = 5 = 1 e = # i - 7 . : 7 e - # e 5 e 6 - % = 5 ",
"# ` - 5 $ X y 2 = q 5 = 5 : % p 7 . :.# e = - # X & X X $ X X $ ",
"X ` * e = # e = 5 = 0 1 - % # r . >.$.# . 5 # 5 = X 8 8 y e y 8 ",
"$ u = 2 2 $ # # X X * # # # # . $...] h 1 O -.# 4 X 8 = 4 = 2 e ",
"# s = = $ $ = X e r u r r 5 . ;.$._ j e r -...$ 2 O y 4 4 8 4 = ",
"X _ e 1 = 5 3 % y 5 = - 6 % . / F 5 ~ 7 R $.# e = & y e 5 5 r = ",
"X y = 1 = 5 = X q - - e : . ;.#..._ $.;.p # - - = O i = q 1 = $ ",
"O s = $ 5 = % # p 6 - 5 : % . ) t t ;...p 7 . 2 5 O r $ 5 = = 3 ",
"O O $ $ # % % # e 6 e : : . O.O.o.X.;.` p 7 . . = $ e 1 $ = $ = ",
"# u u e p r r * p * 1 5 = . 7 P W I ..s 3 } +.f . * # # O $ X X ",
"# s 7 e - : - # u : 5 r . ..P W A Z 5 5 } 2 } f s . . p e 0 e q ",
"# _ 5 : - r * # u r - . -.= W W U 1 - ..=.f e ..5 ` 6 . : 5 - - ",
"* s - 7 - r - * r 5 5 . -.5 Z P A = s ..f 3 A A P W J 6 . e 5 5 ",
"o ] 3 3 7 - 7 @ . . . } 3 ;.8 Z 8 ..$.s e Z P P n A W A 5 . 3 q ",
"* j 3 e - * : . ,.=.. } #.d ;.f :.s } e ..Z P n m n Z J ` . - - ",
"o e 3 3 - - . . V } } d d | +.-.f } f q 5 A W n G J H Z 5 . * # ",
"o j - - 3 . | #.B s 3 } 3 #.f ..;.f } q ..P W P n W I Z ` . q q ",
"o p 7 7 : . | j = ..5 s e 5 5 5 d #.[ e 5 P W P n P P A 5 . 3 1 ",
"o ` 7 e : . #.j = s 5 . - F R S - 2 q f _ J P n G n P A ` . 1 0 ",
"o j 7 : : : . V l 3 . . 5 R ( F 2 ~ 7 F 5 _ P W n A A ` 1 . 0 = ",
"o ` e 7 q 3 . V < . y . 5 S F S - - 2 2 - 5 J P P J C 1 . . . $ ",
"o j = = 7 . B x k . e . [ 5 : - ..` #.] e = 2 ] 5 _ 5 . . . . . ",
"* u = % * . V x . X e . _ ..j : _ ..] .._ { = = . . . . . . . . ",
"# * # # O . V k . X . ..#.` #.: - ` #.] ..j ..= . . . . . . . = ",
"# u e . . V l k . y . s e j e : - e j r j r s = . . . . . . - # ",
"o j . %.%.V < 3 . = . . ~ R x x . . x x ! Y = . . . . . . # * # ",
"* j . %.+.%.&.#.2 . M ! R V V x . . x B l ! Y = . . . e p e p e ",
"* j . . ..#.#.[ j l V V B l c < . . < M V V B x . . = : 6 : : 6 ",
"# ` . . ,.,.7 j s l l < < , < . . . . < < < < < . = 5 * : e 6 : "
};
