/* XPM */
static char *_98455c1c2574d48e0c31409b0214dc3iHdRfWHCXXY6UkZk[] = {
/* columns rows colors chars-per-pixel */
"32 32 143 2 ",
"   c #030202",
".  c #030302",
"X  c #020203",
"o  c #030203",
"O  c #020303",
"+  c gray1",
"@  c #0C0D0C",
"#  c #0C0C0D",
"$  c #0D0C0D",
"%  c #101010",
"&  c #111010",
"*  c #131213",
"=  c gray10",
"-  c #1B1B1A",
";  c #1B1B1B",
":  c #281310",
">  c #291211",
",  c #281311",
"<  c #291311",
"1  c #341814",
"2  c #351814",
"3  c #341914",
"4  c #351914",
"5  c #341815",
"6  c #351915",
"7  c #352914",
"8  c #282928",
"9  c #292829",
"0  c gray16",
"q  c gray19",
"w  c #303130",
"e  c #313130",
"r  c #303031",
"t  c #313031",
"y  c #303131",
"u  c gray21",
"i  c #373636",
"p  c #373736",
"a  c #363737",
"s  c #601800",
"d  c #611800",
"f  c #4E2420",
"g  c #4E2520",
"h  c #4F2520",
"j  c #4E3D20",
"k  c #4F3D20",
"l  c #68332A",
"z  c #69322B",
"x  c #68332B",
"c  c #68502A",
"v  c #68512B",
"b  c gray25",
"n  c #404140",
"m  c #414140",
"M  c #404041",
"N  c #424342",
"B  c #434342",
"V  c #424243",
"C  c #424343",
"Z  c #434343",
"A  c #505050",
"S  c #515050",
"D  c #515150",
"F  c #505051",
"G  c #515051",
"H  c #5D5C5C",
"J  c #5D5C5D",
"K  c #5C5D5D",
"L  c #5D5D5D",
"P  c #7E5A48",
"I  c #606060",
"U  c #686868",
"Y  c #696868",
"T  c #686869",
"R  c gray44",
"E  c #717070",
"W  c #707170",
"Q  c #707071",
"!  c #707171",
"~  c #812100",
"^  c #A02800",
"/  c #A12800",
"(  c #A02801",
")  c #A02901",
"_  c #E00000",
"`  c #E10100",
"'  c #E00101",
"]  c #FE0000",
"[  c #C03000",
"{  c #E03800",
"}  c #E13800",
"|  c #E13801",
" . c #804000",
".. c #A05100",
"X. c #A05001",
"o. c #A15101",
"O. c #806001",
"+. c #A07800",
"@. c #A07901",
"#. c #806335",
"$. c #FF4100",
"%. c #C06100",
"&. c #C16100",
"*. c #C06001",
"=. c #C16001",
"-. c #E07000",
";. c #E17000",
":. c #E07001",
">. c #E07101",
",. c #C09000",
"<. c #C09101",
"1. c #FF8000",
"2. c #FF8101",
"3. c #E0A900",
"4. c #E0A801",
"5. c #FFC000",
"6. c #AD8649",
"7. c #AD8749",
"8. c #C59951",
"9. c #CA8F72",
"0. c #808080",
"q. c #818180",
"w. c #808181",
"e. c #909190",
"r. c #A0A0A0",
"t. c #A1A0A0",
"y. c #A0A1A0",
"u. c #A1A1A0",
"i. c #A0A0A1",
"p. c #E5A282",
"a. c #FFB690",
"s. c #FFD3AF",
"d. c #C0C0C0",
"f. c #C1C0C0",
"g. c #C1C1C0",
"h. c #C0C0C1",
"j. c #D0D0D0",
"k. c #D0D1D0",
"l. c gray88",
"z. c #E1E0E0",
"x. c #E0E0E1",
"c. c #FEFFFE",
"v. c #FEFFFF",
/* pixels */
"+ + + # + + + + + + + + + + $ $ X + + + O + + # # + + + + + + + ",
"+ A K A U A b K U K G H A b K G K V K G Z A m a Z Z a a 0 0 0 + ",
"+ U A U G m b A K Z A U K Z Z K H G + U K K V m i i Z a i 8 0 + ",
"# A K K Z A K K V K i a $ $ ; = = + l.& 0 i A A m a m V i i 0 + ",
"o U K b G Y K i i 0 # # : < < * + k.g.& o # & i A m Z p M p 8 O ",
"# U A D K Z p i 9 # < : 6 < 6 O g.u.w.! m & l.& a A Z V p M 0 # ",
"o K Y D Z i 0 # # : < : h : O z.g.w.! A G l.f.& # p a i m m 8 O ",
"+ A K Y i 0 # < : 6 < : h 6 O 5.@.m 4.Z ,.f.& < < # 0 a 0 i 0 # ",
"+ K Y m 0 = < < : 3 6 < f X k.g.i.0.f.l.I * > 6 < < # 0 i 0 i + ",
"+ A m i # : 6 6 < g 6 < l 3 X 9.P P l.i.I V o 6 h < : # p m 0 # ",
"+ U A # : 6 h 6 : h 3 3 l + s.s.a.p.l.0.I b o o h < 6 : Z p i # ",
"+ A V # : 3 h h 3 x g 3 l + n :.;.=.i.Q b i.h.Q + < g : K i m # ",
"+ K U + 6 h x h 6 x h 6 o u.:.1.=.o.Z Z i.Z i.Q E $ . 4 U 0 0 # ",
"# H m + 6 h x x 6 x x + z.t 1.1.;.m t u.x.Q Z i.j 6.B . U p 0 # ",
"@ K D @ #.h x x h l l + z.m =.:.=.e Q t.E Z o.o.>.>.o.S + a 9 + ",
"o D i = v 6.8.8.o + + e.m z.m =.m t.g.E G o.>.>.' o.;.o.b + a + ",
"O i 0 # k k k o v.x.X y.g.! x.R z.E t.D i.o.>.' ] ' o.&.q.O 8 + ",
"O 0 i # 7 : o o } i.i.R E y.g.x.E t.E D A o.2.' $.o.&.&.N O 8 # ",
"+ i 0 + : + t.g.} Q j y.m f.R y.z.E t.D i.:.2.:.` 2.>.o.! + p # ",
"O m i + : + t.E r i.n R A M m m E f.t.D C :.2.:.` >.>.o.Z O m O ",
"O D m + 4 o g.E q R M O t @.,.O.t b G Q 0.=.:.' $.' ;.o.w.+ A + ",
"+ H m @ 4 z o } ( M O O m ,.5.@.m 4.b +.M 6.:.2.' o.=.w.Z + A + ",
"+ K A # #.x o { d + x + m O.@.O.t t b m r M  .:.;.=. .m + + + + ",
"+ D Y = v o { ) ~ + 6.+ u.m t t u.0.f.0.F r F w.M 6.p + + + + + ",
"+ m A # k + { ) O v v o w.t.! t w.y.0.u.0.y.q t # # X X X X X # ",
"# i U = 7 + { d O < o e.g.w.g.t t 0.d.w.y.0.t.t X X X # X X X X ",
"X p A + o } ) ~ + z X U A ! A t q F R A R F ! t X X X X O X 9 X ",
"# p + k.j.} ~ Z + z X X 4.,.) ) + + ( ( 3.<.0 + X X X X O 9 9 X ",
"+ i o k.g.j.j.g.b X [ 3.,.{ { ^ + + ) } ) 4.,.t + O X : V ; 9 # ",
"+ e + + t.g.f.e.Q ^ } } { ^ ^ s + + d [ { { { ) + X 6 : a ; ; X ",
"@ 0 + + v.v.m E T ^ ^ s s s d + + + + d d d d d + < : : a ; = # ",
"o # + + o o o o + + + + + + + + + + + + + O O + + O X X # X # X "
};
